# MagicaVoxel @ Ephtracy

# group
o 

# material
mtllib SHKAF.mtl
usemtl palette

# normals
vn -1 0 0
vn 1 0 0
vn 0 0 1
vn 0 0 -1
vn 0 -1 0
vn 0 1 0

# texcoords
vt 0.873047 0.5
vt 0.958984 0.5
vt 0.962891 0.5

# verts
v 0 6.3 -8.3
v 0 6.3 -11.6
v 0 6.4 -8.3
v 0 6.4 -11.6
v 0 13.3 -8.3
v 0 13.3 -8.4
v 0 13.3 -11.5
v 0 13.3 -11.6
v 0 13.4 -8.4
v 0 13.4 -11.5
v 1.9 6.6 -8.4
v 1.9 6.6 -11.5
v 1.9 6.7 -8.5
v 1.9 6.7 -9.4
v 1.9 6.7 -9.5
v 1.9 6.7 -10.4
v 1.9 6.7 -10.5
v 1.9 6.7 -11.4
v 1.9 7 -9.5
v 1.9 7 -9.6
v 1.9 7 -10.3
v 1.9 7 -10.4
v 1.9 7.1 -9.6
v 1.9 7.1 -10.3
v 1.9 7.2 -9.5
v 1.9 7.2 -10.4
v 1.9 7.5 -9.5
v 1.9 7.5 -9.6
v 1.9 7.5 -10.3
v 1.9 7.5 -10.4
v 1.9 7.6 -9.6
v 1.9 7.6 -10.3
v 1.9 7.7 -9.5
v 1.9 7.7 -10.4
v 1.9 13.1 -8.5
v 1.9 13.1 -8.6
v 1.9 13.1 -9.3
v 1.9 13.1 -9.4
v 1.9 13.1 -9.5
v 1.9 13.1 -9.6
v 1.9 13.1 -10.3
v 1.9 13.1 -10.4
v 1.9 13.1 -10.5
v 1.9 13.1 -10.6
v 1.9 13.1 -11.3
v 1.9 13.1 -11.4
v 1.9 13.2 -8.6
v 1.9 13.2 -9.3
v 1.9 13.2 -9.6
v 1.9 13.2 -10.3
v 1.9 13.2 -10.6
v 1.9 13.2 -11.3
v 1.9 13.3 -8.4
v 1.9 13.3 -11.5
v 2 6.3 -8.3
v 2 6.3 -11.6
v 2 6.4 -8.3
v 2 6.4 -11.6
v 2 6.6 -8.4
v 2 6.6 -11.5
v 2 6.7 -8.5
v 2 6.7 -9.4
v 2 6.7 -9.5
v 2 6.7 -10.4
v 2 6.7 -10.5
v 2 6.7 -11.4
v 2 6.9 -9.9
v 2 6.9 -10
v 2 7 -9.5
v 2 7 -9.6
v 2 7 -9.9
v 2 7 -10
v 2 7 -10.3
v 2 7 -10.4
v 2 7.1 -9.6
v 2 7.1 -10.3
v 2 7.2 -9.5
v 2 7.2 -10.4
v 2 7.4 -9.9
v 2 7.4 -10
v 2 7.5 -9.5
v 2 7.5 -9.6
v 2 7.5 -9.9
v 2 7.5 -10
v 2 7.5 -10.3
v 2 7.5 -10.4
v 2 7.6 -9.6
v 2 7.6 -10.3
v 2 7.7 -9.5
v 2 7.7 -10.4
v 2 9.9 -9.2
v 2 9.9 -9.3
v 2 9.9 -10.2
v 2 9.9 -10.3
v 2 9.9 -11.2
v 2 9.9 -11.3
v 2 10 -9.2
v 2 10 -9.3
v 2 10 -10.2
v 2 10 -10.3
v 2 10 -11.2
v 2 10 -11.3
v 2 13.1 -8.5
v 2 13.1 -8.6
v 2 13.1 -9.3
v 2 13.1 -9.4
v 2 13.1 -9.5
v 2 13.1 -9.6
v 2 13.1 -10.3
v 2 13.1 -10.4
v 2 13.1 -10.5
v 2 13.1 -10.6
v 2 13.1 -11.3
v 2 13.1 -11.4
v 2 13.2 -8.6
v 2 13.2 -9.3
v 2 13.2 -9.6
v 2 13.2 -10.3
v 2 13.2 -10.6
v 2 13.2 -11.3
v 2 13.3 -8.3
v 2 13.3 -8.4
v 2 13.3 -11.5
v 2 13.3 -11.6
v 2 13.4 -8.4
v 2 13.4 -11.5
v 2.1 6.9 -9.9
v 2.1 6.9 -10
v 2.1 7 -9.9
v 2.1 7 -10
v 2.1 7.4 -9.9
v 2.1 7.4 -10
v 2.1 7.5 -9.9
v 2.1 7.5 -10
v 2.1 9.9 -9.2
v 2.1 9.9 -9.3
v 2.1 9.9 -10.2
v 2.1 9.9 -10.3
v 2.1 9.9 -11.2
v 2.1 9.9 -11.3
v 2.1 10 -9.2
v 2.1 10 -9.3
v 2.1 10 -10.2
v 2.1 10 -10.3
v 2.1 10 -11.2
v 2.1 10 -11.3
v 0 6.3 -8.3
v 0 6.4 -8.3
v 0 13.3 -8.3
v 2 6.3 -8.3
v 2 6.4 -8.3
v 2 13.3 -8.3
v 0 13.3 -8.4
v 0 13.4 -8.4
v 2 13.3 -8.4
v 2 13.4 -8.4
v 1.9 6.7 -8.5
v 1.9 13.1 -8.5
v 2 6.7 -8.5
v 2 13.1 -8.5
v 1.9 13.1 -8.6
v 1.9 13.2 -8.6
v 2 13.1 -8.6
v 2 13.2 -8.6
v 2 9.9 -9.2
v 2 10 -9.2
v 2.1 9.9 -9.2
v 2.1 10 -9.2
v 1.9 6.7 -9.5
v 1.9 7 -9.5
v 1.9 7.2 -9.5
v 1.9 7.5 -9.5
v 1.9 7.7 -9.5
v 1.9 13.1 -9.5
v 2 6.7 -9.5
v 2 7 -9.5
v 2 7.2 -9.5
v 2 7.5 -9.5
v 2 7.7 -9.5
v 2 13.1 -9.5
v 1.9 7 -9.6
v 1.9 7.1 -9.6
v 1.9 7.5 -9.6
v 1.9 7.6 -9.6
v 1.9 13.1 -9.6
v 1.9 13.2 -9.6
v 2 7 -9.6
v 2 7.1 -9.6
v 2 7.5 -9.6
v 2 7.6 -9.6
v 2 13.1 -9.6
v 2 13.2 -9.6
v 2 6.9 -9.9
v 2 7 -9.9
v 2 7.4 -9.9
v 2 7.5 -9.9
v 2.1 6.9 -9.9
v 2.1 7 -9.9
v 2.1 7.4 -9.9
v 2.1 7.5 -9.9
v 2 9.9 -10.2
v 2 10 -10.2
v 2.1 9.9 -10.2
v 2.1 10 -10.2
v 1.9 6.7 -10.5
v 1.9 13.1 -10.5
v 2 6.7 -10.5
v 2 13.1 -10.5
v 1.9 13.1 -10.6
v 1.9 13.2 -10.6
v 2 13.1 -10.6
v 2 13.2 -10.6
v 2 9.9 -11.2
v 2 10 -11.2
v 2.1 9.9 -11.2
v 2.1 10 -11.2
v 1.9 6.6 -11.5
v 1.9 13.3 -11.5
v 2 6.6 -11.5
v 2 13.3 -11.5
v 1.9 6.6 -8.4
v 1.9 13.3 -8.4
v 2 6.6 -8.4
v 2 13.3 -8.4
v 1.9 13.1 -9.3
v 1.9 13.2 -9.3
v 2 9.9 -9.3
v 2 10 -9.3
v 2 13.1 -9.3
v 2 13.2 -9.3
v 2.1 9.9 -9.3
v 2.1 10 -9.3
v 1.9 6.7 -9.4
v 1.9 13.1 -9.4
v 2 6.7 -9.4
v 2 13.1 -9.4
v 2 6.9 -10
v 2 7 -10
v 2 7.4 -10
v 2 7.5 -10
v 2.1 6.9 -10
v 2.1 7 -10
v 2.1 7.4 -10
v 2.1 7.5 -10
v 1.9 7 -10.3
v 1.9 7.1 -10.3
v 1.9 7.5 -10.3
v 1.9 7.6 -10.3
v 1.9 13.1 -10.3
v 1.9 13.2 -10.3
v 2 7 -10.3
v 2 7.1 -10.3
v 2 7.5 -10.3
v 2 7.6 -10.3
v 2 9.9 -10.3
v 2 10 -10.3
v 2 13.1 -10.3
v 2 13.2 -10.3
v 2.1 9.9 -10.3
v 2.1 10 -10.3
v 1.9 6.7 -10.4
v 1.9 7 -10.4
v 1.9 7.2 -10.4
v 1.9 7.5 -10.4
v 1.9 7.7 -10.4
v 1.9 13.1 -10.4
v 2 6.7 -10.4
v 2 7 -10.4
v 2 7.2 -10.4
v 2 7.5 -10.4
v 2 7.7 -10.4
v 2 13.1 -10.4
v 1.9 13.1 -11.3
v 1.9 13.2 -11.3
v 2 9.9 -11.3
v 2 10 -11.3
v 2 13.1 -11.3
v 2 13.2 -11.3
v 2.1 9.9 -11.3
v 2.1 10 -11.3
v 1.9 6.7 -11.4
v 1.9 13.1 -11.4
v 2 6.7 -11.4
v 2 13.1 -11.4
v 0 13.3 -11.5
v 0 13.4 -11.5
v 2 13.3 -11.5
v 2 13.4 -11.5
v 0 6.3 -11.6
v 0 6.4 -11.6
v 0 13.3 -11.6
v 2 6.3 -11.6
v 2 6.4 -11.6
v 2 13.3 -11.6
v 0 6.3 -8.3
v 2 6.3 -8.3
v 0.1 6.3 -8.4
v 1.9 6.3 -8.4
v 0.1 6.3 -11.5
v 1.9 6.3 -11.5
v 0 6.3 -11.6
v 2 6.3 -11.6
v 1.9 6.7 -8.5
v 2 6.7 -8.5
v 1.9 6.7 -9.4
v 2 6.7 -9.4
v 1.9 6.7 -9.5
v 2 6.7 -9.5
v 1.9 6.7 -10.4
v 2 6.7 -10.4
v 1.9 6.7 -10.5
v 2 6.7 -10.5
v 1.9 6.7 -11.4
v 2 6.7 -11.4
v 2 6.9 -9.9
v 2.1 6.9 -9.9
v 2 6.9 -10
v 2.1 6.9 -10
v 1.9 7.2 -9.5
v 2 7.2 -9.5
v 1.9 7.2 -10.4
v 2 7.2 -10.4
v 2 7.4 -9.9
v 2.1 7.4 -9.9
v 2 7.4 -10
v 2.1 7.4 -10
v 1.9 7.7 -9.5
v 2 7.7 -9.5
v 1.9 7.7 -10.4
v 2 7.7 -10.4
v 2 9.9 -9.2
v 2.1 9.9 -9.2
v 2 9.9 -9.3
v 2.1 9.9 -9.3
v 2 9.9 -10.2
v 2.1 9.9 -10.2
v 2 9.9 -10.3
v 2.1 9.9 -10.3
v 2 9.9 -11.2
v 2.1 9.9 -11.2
v 2 9.9 -11.3
v 2.1 9.9 -11.3
v 1.9 13.3 -8.4
v 2 13.3 -8.4
v 1.9 13.3 -11.5
v 2 13.3 -11.5
v 1.9 6.6 -8.4
v 2 6.6 -8.4
v 1.9 6.6 -11.5
v 2 6.6 -11.5
v 1.9 7 -9.5
v 2 7 -9.5
v 1.9 7 -9.6
v 2 7 -9.6
v 2 7 -9.9
v 2.1 7 -9.9
v 2 7 -10
v 2.1 7 -10
v 1.9 7 -10.3
v 2 7 -10.3
v 1.9 7 -10.4
v 2 7 -10.4
v 1.9 7.1 -9.6
v 2 7.1 -9.6
v 1.9 7.1 -10.3
v 2 7.1 -10.3
v 1.9 7.5 -9.5
v 2 7.5 -9.5
v 1.9 7.5 -9.6
v 2 7.5 -9.6
v 2 7.5 -9.9
v 2.1 7.5 -9.9
v 2 7.5 -10
v 2.1 7.5 -10
v 1.9 7.5 -10.3
v 2 7.5 -10.3
v 1.9 7.5 -10.4
v 2 7.5 -10.4
v 1.9 7.6 -9.6
v 2 7.6 -9.6
v 1.9 7.6 -10.3
v 2 7.6 -10.3
v 2 10 -9.2
v 2.1 10 -9.2
v 2 10 -9.3
v 2.1 10 -9.3
v 2 10 -10.2
v 2.1 10 -10.2
v 2 10 -10.3
v 2.1 10 -10.3
v 2 10 -11.2
v 2.1 10 -11.2
v 2 10 -11.3
v 2.1 10 -11.3
v 1.9 13.1 -8.5
v 2 13.1 -8.5
v 1.9 13.1 -8.6
v 2 13.1 -8.6
v 1.9 13.1 -9.3
v 2 13.1 -9.3
v 1.9 13.1 -9.4
v 2 13.1 -9.4
v 1.9 13.1 -9.5
v 2 13.1 -9.5
v 1.9 13.1 -9.6
v 2 13.1 -9.6
v 1.9 13.1 -10.3
v 2 13.1 -10.3
v 1.9 13.1 -10.4
v 2 13.1 -10.4
v 1.9 13.1 -10.5
v 2 13.1 -10.5
v 1.9 13.1 -10.6
v 2 13.1 -10.6
v 1.9 13.1 -11.3
v 2 13.1 -11.3
v 1.9 13.1 -11.4
v 2 13.1 -11.4
v 1.9 13.2 -8.6
v 2 13.2 -8.6
v 1.9 13.2 -9.3
v 2 13.2 -9.3
v 1.9 13.2 -9.6
v 2 13.2 -9.6
v 1.9 13.2 -10.3
v 2 13.2 -10.3
v 1.9 13.2 -10.6
v 2 13.2 -10.6
v 1.9 13.2 -11.3
v 2 13.2 -11.3
v 0 13.3 -8.3
v 2 13.3 -8.3
v 0 13.3 -8.4
v 2 13.3 -8.4
v 0 13.3 -11.5
v 2 13.3 -11.5
v 0 13.3 -11.6
v 2 13.3 -11.6
v 0 13.4 -8.4
v 2 13.4 -8.4
v 0 13.4 -11.5
v 2 13.4 -11.5

# faces
f 3/1/1 2/1/1 1/1/1
f 4/1/1 2/1/1 3/1/1
f 5/3/1 4/3/1 3/3/1
f 6/3/1 4/3/1 5/3/1
f 7/3/1 4/3/1 6/3/1
f 8/3/1 4/3/1 7/3/1
f 9/3/1 7/3/1 6/3/1
f 10/3/1 7/3/1 9/3/1
f 11/3/2 12/3/2 13/3/2
f 13/3/2 12/3/2 14/3/2
f 14/3/2 12/3/2 15/3/2
f 15/3/2 12/3/2 16/3/2
f 16/3/2 12/3/2 17/3/2
f 17/3/2 12/3/2 18/3/2
f 14/3/2 15/3/2 19/3/2
f 16/3/2 17/3/2 22/3/2
f 19/3/2 20/3/2 23/3/2
f 21/3/2 22/3/2 24/3/2
f 19/3/2 23/3/2 25/3/2
f 23/3/2 24/3/2 25/3/2
f 14/3/2 19/3/2 25/3/2
f 24/3/2 22/3/2 26/3/2
f 25/3/2 24/3/2 26/3/2
f 22/3/2 17/3/2 26/3/2
f 14/3/2 25/3/2 27/3/2
f 26/3/2 17/3/2 30/3/2
f 27/3/2 28/3/2 31/3/2
f 29/3/2 30/3/2 32/3/2
f 27/3/2 31/3/2 33/3/2
f 31/3/2 32/3/2 33/3/2
f 14/3/2 27/3/2 33/3/2
f 32/3/2 30/3/2 34/3/2
f 33/3/2 32/3/2 34/3/2
f 30/3/2 17/3/2 34/3/2
f 11/3/2 13/3/2 35/3/2
f 14/3/2 33/3/2 38/3/2
f 38/3/2 33/3/2 39/3/2
f 34/3/2 17/3/2 42/3/2
f 42/3/2 17/3/2 43/3/2
f 18/3/2 12/3/2 46/3/2
f 35/3/2 36/3/2 47/3/2
f 39/3/2 40/3/2 48/3/2
f 37/3/2 38/3/2 48/3/2
f 38/3/2 39/3/2 48/3/2
f 48/3/2 40/3/2 49/3/2
f 43/3/2 44/3/2 50/3/2
f 41/3/2 42/3/2 50/3/2
f 42/3/2 43/3/2 50/3/2
f 50/3/2 44/3/2 51/3/2
f 45/3/2 46/3/2 52/3/2
f 35/3/2 47/3/2 53/3/2
f 51/3/2 52/3/2 53/3/2
f 48/3/2 49/3/2 53/3/2
f 50/3/2 51/3/2 53/3/2
f 49/3/2 50/3/2 53/3/2
f 11/3/2 35/3/2 53/3/2
f 47/3/2 48/3/2 53/3/2
f 52/3/2 46/3/2 54/3/2
f 53/3/2 52/3/2 54/3/2
f 46/3/2 12/3/2 54/3/2
f 55/1/2 56/1/2 57/1/2
f 57/1/2 56/1/2 58/1/2
f 57/3/2 58/3/2 59/3/2
f 59/3/2 58/3/2 60/3/2
f 63/3/2 64/3/2 67/3/2
f 67/3/2 64/3/2 68/3/2
f 63/3/2 67/3/2 69/3/2
f 69/3/2 67/3/2 70/3/2
f 70/3/2 67/3/2 71/3/2
f 68/3/2 64/3/2 72/3/2
f 72/3/2 64/3/2 73/3/2
f 73/3/2 64/3/2 74/3/2
f 70/3/2 71/3/2 75/3/2
f 72/3/2 73/3/2 75/3/2
f 71/3/2 72/3/2 75/3/2
f 75/3/2 73/3/2 76/3/2
f 77/3/2 78/3/2 79/3/2
f 79/3/2 78/3/2 80/3/2
f 77/3/2 79/3/2 81/3/2
f 81/3/2 79/3/2 82/3/2
f 82/3/2 79/3/2 83/3/2
f 80/3/2 78/3/2 84/3/2
f 84/3/2 78/3/2 85/3/2
f 85/3/2 78/3/2 86/3/2
f 82/3/2 83/3/2 87/3/2
f 84/3/2 85/3/2 87/3/2
f 83/3/2 84/3/2 87/3/2
f 87/3/2 85/3/2 88/3/2
f 61/3/2 62/3/2 91/3/2
f 91/3/2 62/3/2 92/3/2
f 89/3/2 90/3/2 93/3/2
f 93/3/2 90/3/2 94/3/2
f 65/3/2 66/3/2 95/3/2
f 95/3/2 66/3/2 96/3/2
f 61/3/2 91/3/2 97/3/2
f 92/3/2 62/3/2 98/3/2
f 89/3/2 93/3/2 99/3/2
f 94/3/2 90/3/2 100/3/2
f 65/3/2 95/3/2 101/3/2
f 96/3/2 66/3/2 102/3/2
f 61/3/2 97/3/2 103/3/2
f 97/3/2 98/3/2 103/3/2
f 103/3/2 98/3/2 104/3/2
f 98/3/2 62/3/2 105/3/2
f 104/3/2 98/3/2 105/3/2
f 105/3/2 62/3/2 106/3/2
f 89/3/2 99/3/2 107/3/2
f 99/3/2 100/3/2 107/3/2
f 107/3/2 100/3/2 108/3/2
f 100/3/2 90/3/2 109/3/2
f 108/3/2 100/3/2 109/3/2
f 109/3/2 90/3/2 110/3/2
f 101/3/2 102/3/2 111/3/2
f 65/3/2 101/3/2 111/3/2
f 111/3/2 102/3/2 112/3/2
f 102/3/2 66/3/2 113/3/2
f 112/3/2 102/3/2 113/3/2
f 113/3/2 66/3/2 114/3/2
f 104/3/2 105/3/2 115/3/2
f 115/3/2 105/3/2 116/3/2
f 108/3/2 109/3/2 117/3/2
f 117/3/2 109/3/2 118/3/2
f 112/3/2 113/3/2 119/3/2
f 119/3/2 113/3/2 120/3/2
f 57/3/2 59/3/2 121/3/2
f 121/3/2 59/3/2 122/3/2
f 60/3/2 58/3/2 123/3/2
f 123/3/2 58/3/2 124/3/2
f 122/3/2 123/3/2 125/3/2
f 125/3/2 123/3/2 126/3/2
f 127/2/2 128/2/2 129/2/2
f 129/2/2 128/2/2 130/2/2
f 131/2/2 132/2/2 133/2/2
f 133/2/2 132/2/2 134/2/2
f 135/2/2 136/2/2 141/2/2
f 141/2/2 136/2/2 142/2/2
f 137/2/2 138/2/2 143/2/2
f 143/2/2 138/2/2 144/2/2
f 139/2/2 140/2/2 145/2/2
f 145/2/2 140/2/2 146/2/2
f 150/1/3 148/1/3 147/1/3
f 151/3/3 149/3/3 148/3/3
f 151/1/3 148/1/3 150/1/3
f 152/3/3 149/3/3 151/3/3
f 155/3/3 154/3/3 153/3/3
f 156/3/3 154/3/3 155/3/3
f 159/3/3 158/3/3 157/3/3
f 160/3/3 158/3/3 159/3/3
f 163/3/3 162/3/3 161/3/3
f 164/3/3 162/3/3 163/3/3
f 167/2/3 166/2/3 165/2/3
f 168/2/3 166/2/3 167/2/3
f 175/3/3 170/3/3 169/3/3
f 176/3/3 170/3/3 175/3/3
f 177/3/3 172/3/3 171/3/3
f 178/3/3 172/3/3 177/3/3
f 179/3/3 174/3/3 173/3/3
f 180/3/3 174/3/3 179/3/3
f 187/3/3 182/3/3 181/3/3
f 188/3/3 182/3/3 187/3/3
f 189/3/3 184/3/3 183/3/3
f 190/3/3 184/3/3 189/3/3
f 191/3/3 186/3/3 185/3/3
f 192/3/3 186/3/3 191/3/3
f 197/2/3 194/2/3 193/2/3
f 198/2/3 194/2/3 197/2/3
f 199/2/3 196/2/3 195/2/3
f 200/2/3 196/2/3 199/2/3
f 203/2/3 202/2/3 201/2/3
f 204/2/3 202/2/3 203/2/3
f 207/3/3 206/3/3 205/3/3
f 208/3/3 206/3/3 207/3/3
f 211/3/3 210/3/3 209/3/3
f 212/3/3 210/3/3 211/3/3
f 215/2/3 214/2/3 213/2/3
f 216/2/3 214/2/3 215/2/3
f 219/3/3 218/3/3 217/3/3
f 220/3/3 218/3/3 219/3/3
f 221/3/4 222/3/4 223/3/4
f 223/3/4 222/3/4 224/3/4
f 225/3/4 226/3/4 229/3/4
f 229/3/4 226/3/4 230/3/4
f 227/2/4 228/2/4 231/2/4
f 231/2/4 228/2/4 232/2/4
f 233/3/4 234/3/4 235/3/4
f 235/3/4 234/3/4 236/3/4
f 237/2/4 238/2/4 241/2/4
f 241/2/4 238/2/4 242/2/4
f 239/2/4 240/2/4 243/2/4
f 243/2/4 240/2/4 244/2/4
f 245/3/4 246/3/4 251/3/4
f 251/3/4 246/3/4 252/3/4
f 247/3/4 248/3/4 253/3/4
f 253/3/4 248/3/4 254/3/4
f 249/3/4 250/3/4 257/3/4
f 257/3/4 250/3/4 258/3/4
f 255/2/4 256/2/4 259/2/4
f 259/2/4 256/2/4 260/2/4
f 261/3/4 262/3/4 267/3/4
f 267/3/4 262/3/4 268/3/4
f 263/3/4 264/3/4 269/3/4
f 269/3/4 264/3/4 270/3/4
f 265/3/4 266/3/4 271/3/4
f 271/3/4 266/3/4 272/3/4
f 273/3/4 274/3/4 277/3/4
f 277/3/4 274/3/4 278/3/4
f 275/2/4 276/2/4 279/2/4
f 279/2/4 276/2/4 280/2/4
f 281/3/4 282/3/4 283/3/4
f 283/3/4 282/3/4 284/3/4
f 285/3/4 286/3/4 287/3/4
f 287/3/4 286/3/4 288/3/4
f 289/1/4 290/1/4 292/1/4
f 290/3/4 291/3/4 293/3/4
f 292/1/4 290/1/4 293/1/4
f 293/3/4 291/3/4 294/3/4
f 297/1/5 296/1/5 295/1/5
f 298/1/5 296/1/5 297/1/5
f 299/1/5 297/1/5 295/1/5
f 299/3/5 298/3/5 297/3/5
f 300/1/5 296/1/5 298/1/5
f 300/3/5 298/3/5 299/3/5
f 301/1/5 299/1/5 295/1/5
f 301/1/5 300/1/5 299/1/5
f 302/1/5 296/1/5 300/1/5
f 302/1/5 300/1/5 301/1/5
f 305/3/5 304/3/5 303/3/5
f 306/3/5 304/3/5 305/3/5
f 309/3/5 308/3/5 307/3/5
f 310/3/5 308/3/5 309/3/5
f 313/3/5 312/3/5 311/3/5
f 314/3/5 312/3/5 313/3/5
f 317/2/5 316/2/5 315/2/5
f 318/2/5 316/2/5 317/2/5
f 321/3/5 320/3/5 319/3/5
f 322/3/5 320/3/5 321/3/5
f 325/2/5 324/2/5 323/2/5
f 326/2/5 324/2/5 325/2/5
f 329/3/5 328/3/5 327/3/5
f 330/3/5 328/3/5 329/3/5
f 333/2/5 332/2/5 331/2/5
f 334/2/5 332/2/5 333/2/5
f 337/2/5 336/2/5 335/2/5
f 338/2/5 336/2/5 337/2/5
f 341/2/5 340/2/5 339/2/5
f 342/2/5 340/2/5 341/2/5
f 345/3/5 344/3/5 343/3/5
f 346/3/5 344/3/5 345/3/5
f 347/3/6 348/3/6 349/3/6
f 349/3/6 348/3/6 350/3/6
f 351/3/6 352/3/6 353/3/6
f 353/3/6 352/3/6 354/3/6
f 355/2/6 356/2/6 357/2/6
f 357/2/6 356/2/6 358/2/6
f 359/3/6 360/3/6 361/3/6
f 361/3/6 360/3/6 362/3/6
f 363/3/6 364/3/6 365/3/6
f 365/3/6 364/3/6 366/3/6
f 367/3/6 368/3/6 369/3/6
f 369/3/6 368/3/6 370/3/6
f 371/2/6 372/2/6 373/2/6
f 373/2/6 372/2/6 374/2/6
f 375/3/6 376/3/6 377/3/6
f 377/3/6 376/3/6 378/3/6
f 379/3/6 380/3/6 381/3/6
f 381/3/6 380/3/6 382/3/6
f 383/2/6 384/2/6 385/2/6
f 385/2/6 384/2/6 386/2/6
f 387/2/6 388/2/6 389/2/6
f 389/2/6 388/2/6 390/2/6
f 391/2/6 392/2/6 393/2/6
f 393/2/6 392/2/6 394/2/6
f 395/3/6 396/3/6 397/3/6
f 397/3/6 396/3/6 398/3/6
f 399/3/6 400/3/6 401/3/6
f 401/3/6 400/3/6 402/3/6
f 403/3/6 404/3/6 405/3/6
f 405/3/6 404/3/6 406/3/6
f 407/3/6 408/3/6 409/3/6
f 409/3/6 408/3/6 410/3/6
f 411/3/6 412/3/6 413/3/6
f 413/3/6 412/3/6 414/3/6
f 415/3/6 416/3/6 417/3/6
f 417/3/6 416/3/6 418/3/6
f 419/3/6 420/3/6 421/3/6
f 421/3/6 420/3/6 422/3/6
f 423/3/6 424/3/6 425/3/6
f 425/3/6 424/3/6 426/3/6
f 427/3/6 428/3/6 429/3/6
f 429/3/6 428/3/6 430/3/6
f 431/3/6 432/3/6 433/3/6
f 433/3/6 432/3/6 434/3/6
f 435/3/6 436/3/6 437/3/6
f 437/3/6 436/3/6 438/3/6
f 439/3/6 440/3/6 441/3/6
f 441/3/6 440/3/6 442/3/6
